<!-- Generated by IcoMoon.io -->
<svg version="1.1" xmlns="http://www.w3.org/2000/svg" width="768" height="768" viewBox="0 0 768 768">
<title></title>
<g id="icomoon-ignore">
</g>
<path fill="#000" d="M640 640h-512c-52.928 0-96-43.072-96-96v-320c0-52.928 43.072-96 96-96h512c52.928 0 96 43.072 96 96v320c0 52.928-43.072 96-96 96zM128 192c-17.632 0-32 14.368-32 32v320c0 17.632 14.368 32 32 32h512c17.632 0 32-14.368 32-32v-320c0-17.632-14.368-32-32-32h-512z"></path>
<path fill="#000" d="M320 480h-128c-17.696 0-32-14.336-32-32s14.304-32 32-32h128c17.696 0 32 14.336 32 32s-14.304 32-32 32z"></path>
<path fill="#000" d="M320 352h-128c-17.696 0-32-14.336-32-32s14.304-32 32-32h128c17.696 0 32 14.336 32 32s-14.304 32-32 32z"></path>
<path fill="#000" d="M576 336c0 35.346-28.654 64-64 64s-64-28.654-64-64c0-35.346 28.654-64 64-64s64 28.654 64 64z"></path>
<path fill="#000" d="M512 427.392c-49.984 0-80 22.88-80 45.728 0 11.424 30.016 22.88 80 22.88 46.912 0 80-11.424 80-22.88 0-22.848-31.36-45.728-80-45.728z"></path>
</svg>
