<svg width="375" height="812" viewBox="0 0 375 812" fill="none" xmlns="http://www.w3.org/2000/svg">
<g clip-path="url(#clip0_)">
<rect width="375" height="812" fill="#202024"/>
<circle cx="278" cy="99" r="300" transform="rotate(-180 278 99)" fill="url(#paint0_radial_)"/>
<circle cx="98" cy="99" r="300" transform="rotate(-180 98 99)" fill="url(#paint1_radial_)"/>
<mask id="mask0_" style="mask-type:alpha" maskUnits="userSpaceOnUse" x="1" y="-47" width="380" height="812">
<rect x="1" y="-47" width="380" height="812" fill="#202024"/>
</mask>
<g mask="url(#mask0_)">
<path d="M373.952 121.587V-357.213L183.929 -465L-6.09338 -357.213V121.587L183.929 229.38L373.952 121.587Z" fill="url(#paint2_linear_)"/>
<g style="mix-blend-mode:luminosity" opacity="0.4">
<path d="M-4.18692 14.8792V122.283L90.3478 175.991L184.883 122.283V14.8792L90.3478 -38.8281L-4.18692 14.8792Z" fill="url(#paint3_linear_)"/>
<path d="M-4.18692 -92.5305V14.8738L90.3478 68.5811L184.883 14.8738V-92.5305L90.3478 -146.238L-4.18692 -92.5305Z" fill="url(#paint4_linear_)"/>
<path d="M279.417 -146.21V-38.8057L184.883 14.9016L90.3478 -38.8057V-146.21L184.883 -199.917L279.417 -146.21Z" fill="url(#paint5_linear_)"/>
<path d="M184.882 122.283V14.8788L279.417 -38.8285L373.952 14.8788V122.283L279.417 175.99L184.882 122.283Z" fill="url(#paint6_linear_)"/>
<path d="M373.952 -92.5305V14.8738L279.417 68.5811L184.883 14.8738V-92.5305L279.417 -146.238L373.952 -92.5305Z" fill="url(#paint7_linear_)"/>
<path d="M279.417 176.013V68.6089L184.883 14.9016L90.3478 68.6089L90.3478 176.013L184.883 229.721L279.417 176.013Z" fill="url(#paint8_linear_)"/>
</g>
</g>
</g>
<defs>
<radialGradient id="paint0_radial_" cx="0" cy="0" r="1" gradientUnits="userSpaceOnUse" gradientTransform="translate(278 99) rotate(90) scale(300)">
<stop stop-color="#4EF2FD"/>
<stop offset="1" stop-color="#121214" stop-opacity="0"/>
</radialGradient>
<radialGradient id="paint1_radial_" cx="0" cy="0" r="1" gradientUnits="userSpaceOnUse" gradientTransform="translate(98 99) rotate(90) scale(300)">
<stop stop-color="#FFFFFF"/>
<stop offset="1" stop-color="#121214" stop-opacity="0"/>
</radialGradient>
<linearGradient id="paint2_linear_" x1="-74.9038" y1="12.4246" x2="434.434" y2="189.994" gradientUnits="userSpaceOnUse">
<stop stop-color="#FFFFFF"/>
<stop offset="1" stop-color="#4EF2FD"/>
</linearGradient>
<linearGradient id="paint3_linear_" x1="90.3478" y1="171.051" x2="-1.93575" y2="11.4667" gradientUnits="userSpaceOnUse">
<stop stop-color="#8257E5"/>
<stop offset="1" stop-color="#FF008E" stop-opacity="0"/>
</linearGradient>
<linearGradient id="paint4_linear_" x1="90.3478" y1="63.6415" x2="-1.93577" y2="-95.943" gradientUnits="userSpaceOnUse">
<stop stop-color="#8257E5"/>
<stop offset="1" stop-color="#FF008E" stop-opacity="0"/>
</linearGradient>
<linearGradient id="paint5_linear_" x1="90.3478" y1="-152.246" x2="277.782" y2="-37.6317" gradientUnits="userSpaceOnUse">
<stop stop-color="#FF008E" stop-opacity="0"/>
<stop offset="1" stop-color="#FFCD1E"/>
</linearGradient>
<linearGradient id="paint6_linear_" x1="373.952" y1="128.319" x2="186.517" y2="13.7048" gradientUnits="userSpaceOnUse">
<stop stop-color="#FF008E" stop-opacity="0"/>
<stop offset="1" stop-color="#FFCD1E"/>
</linearGradient>
<linearGradient id="paint7_linear_" x1="279.417" y1="63.6415" x2="371.701" y2="-95.943" gradientUnits="userSpaceOnUse">
<stop stop-color="#8257E5"/>
<stop offset="1" stop-color="#FF008E" stop-opacity="0"/>
</linearGradient>
<linearGradient id="paint8_linear_" x1="184.883" y1="19.8413" x2="277.166" y2="179.426" gradientUnits="userSpaceOnUse">
<stop stop-color="#8257E5"/>
<stop offset="1" stop-color="#FF008E" stop-opacity="0"/>
</linearGradient>
<clipPath id="clip0_">
<rect width="375" height="812" fill="white"/>
</clipPath>
</defs>
</svg>